<svg width="20" height="16" viewBox="0 0 20 16" fill="none" xmlns="http://www.w3.org/2000/svg">
<path d="M16.928 1.75767C15.6338 1.17485 14.2555 0.745398 12.8035 0.5C12.6246 0.806748 12.4141 1.22597 12.2774 1.56339C10.7412 1.33844 9.21547 1.33844 7.71085 1.56339C7.56354 1.22597 7.3531 0.806748 7.17423 0.5C5.7222 0.745398 4.34383 1.17485 3.04963 1.75767C0.440194 5.58179 -0.264775 9.31392 0.0824486 12.9847C1.81857 14.2423 3.49155 14.999 5.1435 15.5C5.55385 14.9581 5.9116 14.3753 6.22726 13.772C5.62751 13.5573 5.05932 13.2812 4.5227 12.9642C4.67001 12.862 4.80679 12.7495 4.94358 12.6472C8.23693 14.1401 11.8039 14.1401 15.0551 12.6472C15.1919 12.7597 15.3287 12.862 15.476 12.9642C14.9394 13.2812 14.3607 13.547 13.7715 13.772C14.0871 14.3753 14.4449 14.9581 14.8552 15.5C16.5072 14.999 18.1907 14.2423 19.9163 12.9847C20.3266 8.72087 19.2113 5.02964 16.9491 1.75767H16.928ZM6.66918 10.7352C5.68012 10.7352 4.86993 9.84562 4.86993 8.75155C4.86993 7.65748 5.65907 6.76791 6.66918 6.76791C7.67928 6.76791 8.47894 7.65748 8.46842 8.75155C8.46842 9.83539 7.67928 10.7352 6.66918 10.7352ZM13.3085 10.7352C12.3194 10.7352 11.5093 9.84562 11.5093 8.75155C11.5093 7.65748 12.2984 6.76791 13.3085 6.76791C14.3186 6.76791 15.1183 7.65748 15.1078 8.75155C15.1078 9.83539 14.3186 10.7352 13.3085 10.7352Z" fill="white"/>
</svg>
