<svg width="1744" height="132" viewBox="0 0 1744 132" fill="none" xmlns="http://www.w3.org/2000/svg">
<g filter="url(#filter0_dii_285_2124)">
<path d="M1728 8C1730.21 8 1732 9.79086 1732 12V78.1504C1732 78.8601 1731.81 79.5569 1731.45 80.1695L1720.92 98.1915L1711.91 113.982C1711.19 115.23 1709.87 116 1708.43 116H39.8435C38.5962 116 37.4203 115.418 36.6637 114.427L12.8201 83.1811C12.2882 82.484 12 81.6314 12 80.7545V63.1489V12C12 9.79086 13.7909 8 16 8H1728Z" fill="#D9D9D9"/>
<path d="M1728 8C1730.21 8 1732 9.79086 1732 12V78.1504C1732 78.8601 1731.81 79.5569 1731.45 80.1695L1720.92 98.1915L1711.91 113.982C1711.19 115.23 1709.87 116 1708.43 116H39.8435C38.5962 116 37.4203 115.418 36.6637 114.427L12.8201 83.1811C12.2882 82.484 12 81.6314 12 80.7545V63.1489V12C12 9.79086 13.7909 8 16 8H1728Z" fill="url(#paint0_radial_285_2124)"/>
</g>
<defs>
<filter id="filter0_dii_285_2124" x="0.2" y="0.2" width="1743.6" height="131.6" filterUnits="userSpaceOnUse" color-interpolation-filters="sRGB">
<feFlood flood-opacity="0" result="BackgroundImageFix"/>
<feColorMatrix in="SourceAlpha" type="matrix" values="0 0 0 0 0 0 0 0 0 0 0 0 0 0 0 0 0 0 127 0" result="hardAlpha"/>
<feOffset dy="4"/>
<feGaussianBlur stdDeviation="5.9"/>
<feComposite in2="hardAlpha" operator="out"/>
<feColorMatrix type="matrix" values="0 0 0 0 0 0 0 0 0 0.733333 0 0 0 0 1 0 0 0 0.99 0"/>
<feBlend mode="normal" in2="BackgroundImageFix" result="effect1_dropShadow_285_2124"/>
<feBlend mode="normal" in="SourceGraphic" in2="effect1_dropShadow_285_2124" result="shape"/>
<feColorMatrix in="SourceAlpha" type="matrix" values="0 0 0 0 0 0 0 0 0 0 0 0 0 0 0 0 0 0 127 0" result="hardAlpha"/>
<feOffset/>
<feGaussianBlur stdDeviation="5.05"/>
<feComposite in2="hardAlpha" operator="arithmetic" k2="-1" k3="1"/>
<feColorMatrix type="matrix" values="0 0 0 0 0 0 0 0 0 0.733333 0 0 0 0 1 0 0 0 1 0"/>
<feBlend mode="normal" in2="shape" result="effect2_innerShadow_285_2124"/>
<feColorMatrix in="SourceAlpha" type="matrix" values="0 0 0 0 0 0 0 0 0 0 0 0 0 0 0 0 0 0 127 0" result="hardAlpha"/>
<feOffset/>
<feGaussianBlur stdDeviation="1.55"/>
<feComposite in2="hardAlpha" operator="arithmetic" k2="-1" k3="1"/>
<feColorMatrix type="matrix" values="0 0 0 0 0 0 0 0 0 0.2 0 0 0 0 1 0 0 0 1 0"/>
<feBlend mode="normal" in2="effect2_innerShadow_285_2124" result="effect3_innerShadow_285_2124"/>
</filter>
<radialGradient id="paint0_radial_285_2124" cx="0" cy="0" r="1" gradientUnits="userSpaceOnUse" gradientTransform="translate(872 62) rotate(90) scale(54 860)">
<stop stop-color="white"/>
<stop offset="1" stop-color="white"/>
</radialGradient>
</defs>
</svg>
