<svg width="1713" height="102" viewBox="0 0 1713 102" fill="none" xmlns="http://www.w3.org/2000/svg">
<g filter="url(#filter0_di_285_2160)">
<path d="M34.6238 78.5H1702.02L1691.95 94H34.6238L9 64.5V48L34.6238 78.5Z" fill="#191919"/>
<path fill-rule="evenodd" clip-rule="evenodd" d="M1713 62V0H1535.5L1540.5 10L1526.5 30L1517.5 53L1519.5 30L1525 10L1515 0H9V48L34.6238 78.5H1702.02L1713 62Z" fill="#2C2C2C"/>
<path d="M1525 10L1515 0L1528.5 3.5L1533 10L1523 30L1517.5 53L1519.5 30L1525 10Z" fill="url(#paint0_linear_285_2160)"/>
<path d="M1526.5 30L1517.5 53L1523 30L1533 10L1528.5 3.5L1535.5 0L1540.5 10L1526.5 30Z" fill="url(#paint1_linear_285_2160)"/>
</g>
<defs>
<filter id="filter0_di_285_2160" x="0" y="0" width="1713" height="102" filterUnits="userSpaceOnUse" color-interpolation-filters="sRGB">
<feFlood flood-opacity="0" result="BackgroundImageFix"/>
<feColorMatrix in="SourceAlpha" type="matrix" values="0 0 0 0 0 0 0 0 0 0 0 0 0 0 0 0 0 0 127 0" result="hardAlpha"/>
<feOffset dx="-5" dy="4"/>
<feGaussianBlur stdDeviation="2"/>
<feComposite in2="hardAlpha" operator="out"/>
<feColorMatrix type="matrix" values="0 0 0 0 0 0 0 0 0 0 0 0 0 0 0 0 0 0 0.25 0"/>
<feBlend mode="normal" in2="BackgroundImageFix" result="effect1_dropShadow_285_2160"/>
<feBlend mode="normal" in="SourceGraphic" in2="effect1_dropShadow_285_2160" result="shape"/>
<feColorMatrix in="SourceAlpha" type="matrix" values="0 0 0 0 0 0 0 0 0 0 0 0 0 0 0 0 0 0 127 0" result="hardAlpha"/>
<feOffset dy="4"/>
<feGaussianBlur stdDeviation="2"/>
<feComposite in2="hardAlpha" operator="arithmetic" k2="-1" k3="1"/>
<feColorMatrix type="matrix" values="0 0 0 0 1 0 0 0 0 1 0 0 0 0 1 0 0 0 0.25 0"/>
<feBlend mode="normal" in2="shape" result="effect2_innerShadow_285_2160"/>
</filter>
<linearGradient id="paint0_linear_285_2160" x1="1430" y1="-4" x2="1533" y2="9.5" gradientUnits="userSpaceOnUse">
<stop stop-color="#929292"/>
<stop offset="1" stop-color="#2C2C2C"/>
</linearGradient>
<linearGradient id="paint1_linear_285_2160" x1="1566" y1="28.5" x2="1530.5" y2="11" gradientUnits="userSpaceOnUse">
<stop stop-color="#929292"/>
<stop offset="1" stop-color="#2C2C2C"/>
</linearGradient>
</defs>
</svg>
