<svg width="16" height="17" viewBox="0 0 16 17" fill="none" xmlns="http://www.w3.org/2000/svg">
<path d="M16 8.5C16 12.9182 12.4182 16.5 8 16.5C3.58172 16.5 0 12.9182 0 8.5C0 4.08172 3.58172 0.5 8 0.5C12.4182 0.5 16 4.08172 16 8.5Z" fill="#E9E9E9"/>
<path d="M8.00039 13.1016C8.33175 13.1016 8.60039 12.8329 8.60039 12.5016V7.70156C8.60039 7.3702 8.33175 7.10156 8.00039 7.10156C7.66903 7.10156 7.40039 7.3702 7.40039 7.70156V12.5016C7.40039 12.8329 7.66903 13.1016 8.00039 13.1016Z" fill="#4C4740"/>
<path d="M8.0002 4.5C8.44204 4.5 8.8002 4.85817 8.8002 5.3C8.8002 5.74183 8.44204 6.1 8.0002 6.1C7.55836 6.1 7.2002 5.74183 7.2002 5.3C7.2002 4.85817 7.55836 4.5 8.0002 4.5Z" fill="#4C4740"/>
</svg>
