<svg width="64" height="49" viewBox="0 0 64 49" fill="none" xmlns="http://www.w3.org/2000/svg">
<g filter="url(#filter0_d_533_2350)">
<path d="M7.27064 7.68493L10.5 10.5479L7.56422 11V10.5479L7.27064 7.68493Z" fill="url(#paint0_radial_533_2350)"/>
<path d="M4.62844 10.5479L7.27064 7.68493L7.56422 10.5479V11L4.62844 10.5479Z" fill="url(#paint1_radial_533_2350)"/>
<path d="M23.1927 1.65753L30.201 0.650329C30.4202 0.618822 30.6327 0.551117 30.8297 0.449979L31.7064 0L33.1743 0.30137L31.3026 0.850324C31.1807 0.886099 31.0556 0.910165 30.929 0.922193L23.1927 1.65753Z" fill="url(#paint2_radial_533_2350)"/>
<path fill-rule="evenodd" clip-rule="evenodd" d="M31.7064 0H2C0.895427 0 -3.8147e-06 0.895431 -3.8147e-06 2V8.54795C-3.8147e-06 9.65251 0.895427 10.5479 2 10.5479H4.62844L7.27064 7.68493L10.5 10.5479H54.2789C54.8592 10.5479 55.4109 10.2959 55.7908 9.85715L55.8789 9.75541C56.1937 9.39188 56.367 8.92709 56.367 8.44621V6.78082L57.0216 8.3489C57.1692 8.70245 57.2122 9.09097 57.1454 9.46823L56.9541 10.5479H62C63.1046 10.5479 64 9.65252 64 8.54795V2C64 0.895431 63.1046 0 62 0H35.8165L32.2442 1.12836C32.082 1.17956 31.9141 1.20989 31.7443 1.2186L23.1927 1.65753L30.201 0.650329C30.4202 0.618822 30.6327 0.551117 30.8297 0.449979L31.7064 0Z" fill="url(#paint3_radial_533_2350)"/>
<path d="M35.8165 0L32.2442 1.12836C32.082 1.17956 31.9141 1.20989 31.7443 1.2186L23.1927 1.65753L30.929 0.922193C31.0556 0.910165 31.1807 0.886099 31.3026 0.850324L33.1743 0.30137L35.8165 0Z" fill="url(#paint4_radial_533_2350)"/>
</g>
<g filter="url(#filter1_d_533_2350)">
<path d="M56.7294 24.6849L53.5 27.5479L56.4358 28V27.5479L56.7294 24.6849Z" fill="url(#paint5_radial_533_2350)"/>
<path d="M59.3716 27.5479L56.7294 24.6849L56.4358 27.5479V28L59.3716 27.5479Z" fill="url(#paint6_radial_533_2350)"/>
<path d="M40.8073 18.6575L33.799 17.6503C33.5798 17.6188 33.3673 17.5511 33.1703 17.45L32.2936 17L30.8257 17.3014L32.6974 17.8503C32.8193 17.8861 32.9444 17.9102 33.071 17.9222L40.8073 18.6575Z" fill="url(#paint7_radial_533_2350)"/>
<path fill-rule="evenodd" clip-rule="evenodd" d="M32.2936 17H62C63.1046 17 64 17.8954 64 19V25.5479C64 26.6525 63.1046 27.5479 62 27.5479H59.3716L56.7294 24.6849L53.5 27.5479H9.72112C9.14079 27.5479 8.58906 27.2959 8.20917 26.8571L8.12108 26.7554C7.80629 26.3919 7.63303 25.9271 7.63303 25.4462V23.7808L6.97837 25.3489C6.83076 25.7025 6.78782 26.091 6.85464 26.4682L7.04587 27.5479H2C0.895432 27.5479 0 26.6525 0 25.5479V19C0 17.8954 0.89543 17 2 17H28.1835L31.7558 18.1284C31.918 18.1796 32.0859 18.2099 32.2557 18.2186L40.8073 18.6575L33.799 17.6503C33.5798 17.6188 33.3673 17.5511 33.1703 17.45L32.2936 17Z" fill="url(#paint8_radial_533_2350)"/>
<path d="M28.1835 17L31.7558 18.1284C31.918 18.1796 32.0859 18.2099 32.2557 18.2186L40.8073 18.6575L33.071 17.9222C32.9444 17.9102 32.8193 17.8861 32.6974 17.8503L30.8257 17.3014L28.1835 17Z" fill="url(#paint9_radial_533_2350)"/>
</g>
<g filter="url(#filter2_d_533_2350)">
<path d="M7.92661 34L7.06068 34.6759C6.2275 35.3263 6.04423 36.5127 6.64231 37.3842L8.2666 39.751C8.42946 39.9883 8.64161 40.1876 8.88857 40.3354L13.8417 43.2997C14.1955 43.5114 14.606 43.6086 15.0171 43.578L22.2628 43.0394C22.4896 43.0225 22.7176 43.0445 22.9371 43.1043L28.7706 44.6944H29.3578L27.7518 43.998C27.6483 43.9531 27.5413 43.9171 27.4318 43.8903L22.9318 42.7882C22.7158 42.7353 22.4925 42.7188 22.271 42.7394L15.0892 43.4068C14.6337 43.4491 14.1776 43.3341 13.7967 43.0808L9.46693 40.2017C9.2258 40.0414 9.02236 39.8306 8.87068 39.5839L7.80586 37.8522C7.22496 36.9076 7.52363 35.6706 8.47159 35.095L10.2752 34H7.92661Z" fill="url(#paint10_radial_533_2350)"/>
<path d="M29.945 44.6944L28.3957 43.8882C28.2547 43.8149 28.1055 43.7586 27.9512 43.7205L22.9516 42.4881C22.7227 42.4317 22.4856 42.4162 22.2513 42.4423L15.1715 43.2318C14.6664 43.2881 14.1588 43.15 13.7519 42.8456L10.0122 40.048C9.79827 39.888 9.6186 39.6868 9.48375 39.4562L8.74766 38.1976C8.15069 37.1768 8.56489 35.8638 9.63952 35.3703L12.6239 34H10.2752L8.47159 35.095C7.52363 35.6706 7.22496 36.9076 7.80586 37.8522L8.87068 39.5839C9.02236 39.8306 9.2258 40.0414 9.46693 40.2017L13.7967 43.0808C14.1776 43.3341 14.6337 43.4491 15.0892 43.4068L22.271 42.7394C22.4925 42.7188 22.7158 42.7353 22.9318 42.7882L27.4318 43.8903C27.5413 43.9171 27.6483 43.9531 27.7518 43.998L29.3578 44.6944H29.945Z" fill="url(#paint11_radial_533_2350)"/>
<path fill-rule="evenodd" clip-rule="evenodd" d="M7.92661 34H2C0.895431 34 0 34.8954 0 36V42.6944C0 43.799 0.895432 44.6944 2 44.6944H28.7706L22.9371 43.1043C22.7176 43.0445 22.4896 43.0225 22.2628 43.0394L15.0171 43.578C14.606 43.6086 14.1955 43.5114 13.8417 43.2997L8.88857 40.3354C8.64161 40.1876 8.42946 39.9883 8.2666 39.751L6.64231 37.3842C6.04423 36.5127 6.2275 35.3263 7.06068 34.6759L7.92661 34ZM29.945 44.6944H62C63.1046 44.6944 64 43.799 64 42.6944V36C64 34.8954 63.1046 34 62 34H54.8991L57.5463 35.2628C58.0993 35.5266 58.5009 36.0293 58.636 36.6269L59.0092 38.2778L56.2417 36.1175C56.1298 36.0301 56.009 35.955 55.8812 35.8932L54.0184 34.9931L51.9633 34H12.6239L9.63952 35.3703C8.56489 35.8638 8.15069 37.1768 8.74766 38.1976L9.48375 39.4562C9.6186 39.6868 9.79827 39.888 10.0122 40.048L13.7519 42.8456C14.1588 43.15 14.6664 43.2881 15.1715 43.2318L22.2513 42.4423C22.4856 42.4162 22.7227 42.4317 22.9516 42.4881L27.9512 43.7205C28.1055 43.7586 28.2547 43.8149 28.3957 43.8882L29.945 44.6944Z" fill="url(#paint12_radial_533_2350)"/>
<path d="M55.8812 35.8932C56.009 35.955 56.1298 36.0301 56.2417 36.1175L59.0092 38.2778L57.5418 36.3688C57.3485 36.1173 57.0982 35.9154 56.8114 35.7797L54.0184 34.4583L51.9633 34L54.0184 34.9931L55.8812 35.8932Z" fill="url(#paint13_radial_533_2350)"/>
<path d="M58.636 36.6269C58.5009 36.0293 58.0993 35.5266 57.5463 35.2628L54.8991 34L54.0184 34.4583L56.8114 35.7797C57.0982 35.9154 57.3485 36.1173 57.5418 36.3688L59.0092 38.2778L58.636 36.6269Z" fill="url(#paint14_radial_533_2350)"/>
</g>
<defs>
<filter id="filter0_d_533_2350" x="0" y="0" width="64" height="15" filterUnits="userSpaceOnUse" color-interpolation-filters="sRGB">
<feFlood flood-opacity="0" result="BackgroundImageFix"/>
<feColorMatrix in="SourceAlpha" type="matrix" values="0 0 0 0 0 0 0 0 0 0 0 0 0 0 0 0 0 0 127 0" result="hardAlpha"/>
<feOffset dy="4"/>
<feComposite in2="hardAlpha" operator="out"/>
<feColorMatrix type="matrix" values="0 0 0 0 0.0980392 0 0 0 0 0.0980392 0 0 0 0 0.0980392 0 0 0 1 0"/>
<feBlend mode="normal" in2="BackgroundImageFix" result="effect1_dropShadow_533_2350"/>
<feBlend mode="normal" in="SourceGraphic" in2="effect1_dropShadow_533_2350" result="shape"/>
</filter>
<filter id="filter1_d_533_2350" x="0" y="17" width="64" height="15" filterUnits="userSpaceOnUse" color-interpolation-filters="sRGB">
<feFlood flood-opacity="0" result="BackgroundImageFix"/>
<feColorMatrix in="SourceAlpha" type="matrix" values="0 0 0 0 0 0 0 0 0 0 0 0 0 0 0 0 0 0 127 0" result="hardAlpha"/>
<feOffset dy="4"/>
<feComposite in2="hardAlpha" operator="out"/>
<feColorMatrix type="matrix" values="0 0 0 0 0.0980392 0 0 0 0 0.0980392 0 0 0 0 0.0980392 0 0 0 1 0"/>
<feBlend mode="normal" in2="BackgroundImageFix" result="effect1_dropShadow_533_2350"/>
<feBlend mode="normal" in="SourceGraphic" in2="effect1_dropShadow_533_2350" result="shape"/>
</filter>
<filter id="filter2_d_533_2350" x="0" y="34" width="64" height="15" filterUnits="userSpaceOnUse" color-interpolation-filters="sRGB">
<feFlood flood-opacity="0" result="BackgroundImageFix"/>
<feColorMatrix in="SourceAlpha" type="matrix" values="0 0 0 0 0 0 0 0 0 0 0 0 0 0 0 0 0 0 127 0" result="hardAlpha"/>
<feOffset dy="4"/>
<feComposite in2="hardAlpha" operator="out"/>
<feColorMatrix type="matrix" values="0 0 0 0 0.0980392 0 0 0 0 0.0980392 0 0 0 0 0.0980392 0 0 0 1 0"/>
<feBlend mode="normal" in2="BackgroundImageFix" result="effect1_dropShadow_533_2350"/>
<feBlend mode="normal" in="SourceGraphic" in2="effect1_dropShadow_533_2350" result="shape"/>
</filter>
<radialGradient id="paint0_radial_533_2350" cx="0" cy="0" r="1" gradientUnits="userSpaceOnUse" gradientTransform="translate(24.0734 9.34247) rotate(177.9) scale(16.4514 25.1174)">
<stop stop-color="#6D675E"/>
<stop offset="1" stop-color="#36312B"/>
</radialGradient>
<radialGradient id="paint1_radial_533_2350" cx="0" cy="0" r="1" gradientUnits="userSpaceOnUse" gradientTransform="translate(1.17431 8.28767) rotate(15.0485) scale(6.38407 11.5407)">
<stop stop-color="#6D675E"/>
<stop offset="1" stop-color="#36312B"/>
</radialGradient>
<radialGradient id="paint2_radial_533_2350" cx="0" cy="0" r="1" gradientUnits="userSpaceOnUse" gradientTransform="translate(28.7706 -1.20548) rotate(52.0701) scale(2.86559 11.9404)">
<stop stop-color="#6D675E"/>
<stop offset="1" stop-color="#36312B"/>
</radialGradient>
<radialGradient id="paint3_radial_533_2350" cx="0" cy="0" r="1" gradientUnits="userSpaceOnUse" gradientTransform="translate(32 5.27397) rotate(107.489) scale(6.45341 34.7814)">
<stop stop-color="#9D9D9D"/>
<stop offset="1" stop-color="#2E2B27"/>
</radialGradient>
<radialGradient id="paint4_radial_533_2350" cx="0" cy="0" r="1" gradientUnits="userSpaceOnUse" gradientTransform="translate(32.2936 2.71233) rotate(-124.831) scale(2.57003 11.2732)">
<stop stop-color="#6D675E"/>
<stop offset="1" stop-color="#36312B"/>
</radialGradient>
<radialGradient id="paint5_radial_533_2350" cx="0" cy="0" r="1" gradientUnits="userSpaceOnUse" gradientTransform="translate(39.9266 26.3425) rotate(2.09965) scale(16.4514 25.1174)">
<stop stop-color="#6D675E"/>
<stop offset="1" stop-color="#36312B"/>
</radialGradient>
<radialGradient id="paint6_radial_533_2350" cx="0" cy="0" r="1" gradientUnits="userSpaceOnUse" gradientTransform="translate(62.8257 25.2877) rotate(164.952) scale(6.38407 11.5407)">
<stop stop-color="#6D675E"/>
<stop offset="1" stop-color="#36312B"/>
</radialGradient>
<radialGradient id="paint7_radial_533_2350" cx="0" cy="0" r="1" gradientUnits="userSpaceOnUse" gradientTransform="translate(35.2294 15.7945) rotate(127.93) scale(2.86559 11.9404)">
<stop stop-color="#6D675E"/>
<stop offset="1" stop-color="#36312B"/>
</radialGradient>
<radialGradient id="paint8_radial_533_2350" cx="0" cy="0" r="1" gradientUnits="userSpaceOnUse" gradientTransform="translate(32 22.274) rotate(72.511) scale(6.45341 34.7814)">
<stop stop-color="#9D9D9D"/>
<stop offset="1" stop-color="#36312B"/>
</radialGradient>
<radialGradient id="paint9_radial_533_2350" cx="0" cy="0" r="1" gradientUnits="userSpaceOnUse" gradientTransform="translate(31.7064 19.7123) rotate(-55.1691) scale(2.57003 11.2732)">
<stop stop-color="#6D675E"/>
<stop offset="1" stop-color="#36312B"/>
</radialGradient>
<radialGradient id="paint10_radial_533_2350" cx="0" cy="0" r="1" gradientUnits="userSpaceOnUse" gradientTransform="translate(-34.3486 45.9167) rotate(-5.17142) scale(47.4592 74.7919)">
<stop stop-color="#6D675E"/>
<stop offset="1" stop-color="#36312B"/>
</radialGradient>
<radialGradient id="paint11_radial_533_2350" cx="0" cy="0" r="1" gradientUnits="userSpaceOnUse" gradientTransform="translate(75.4495 -8.47223) rotate(141.423) scale(80.3629 253.686)">
<stop stop-color="#6D675E"/>
<stop offset="1" stop-color="#312C26"/>
</radialGradient>
<radialGradient id="paint12_radial_533_2350" cx="0" cy="0" r="1" gradientUnits="userSpaceOnUse" gradientTransform="translate(32 39.3472) rotate(72.7363) scale(6.535 34.8242)">
<stop stop-color="#9D9D9D"/>
<stop offset="1" stop-color="#36312B"/>
</radialGradient>
<radialGradient id="paint13_radial_533_2350" cx="0" cy="0" r="1" gradientUnits="userSpaceOnUse" gradientTransform="translate(50.4954 37.5139) rotate(-23.4447) scale(5.75992 12.6689)">
<stop stop-color="#6D675E"/>
<stop offset="1" stop-color="#36312B"/>
</radialGradient>
<radialGradient id="paint14_radial_533_2350" cx="0" cy="0" r="1" gradientUnits="userSpaceOnUse" gradientTransform="translate(49.3211 40.1111) rotate(-28.2955) scale(9.66908 23.933)">
<stop stop-color="#6D675E"/>
<stop offset="1" stop-color="#36312B"/>
</radialGradient>
</defs>
</svg>
