<svg width="13" height="15" viewBox="0 0 13 15" fill="none" xmlns="http://www.w3.org/2000/svg">
<g clip-path="url(#clip0_286_9373)">
<path opacity="0.35" d="M13.1328 8.75C13.8232 8.75 14.3828 8.19036 14.3828 7.5C14.3828 6.80964 13.8232 6.25 13.1328 6.25C12.4425 6.25 11.8828 6.80964 11.8828 7.5C11.8828 8.19036 12.4425 8.75 13.1328 8.75Z" fill="#2DC7FF"/>
<path d="M2.50781 13.125C3.19817 13.125 3.75781 12.5654 3.75781 11.875C3.75781 11.1846 3.19817 10.625 2.50781 10.625C1.81746 10.625 1.25781 11.1846 1.25781 11.875C1.25781 12.5654 1.81746 13.125 2.50781 13.125Z" fill="#2DC7FF"/>
<path d="M8.44531 2.5C8.96308 2.5 9.38281 2.08027 9.38281 1.5625C9.38281 1.04473 8.96308 0.625 8.44531 0.625C7.92755 0.625 7.50781 1.04473 7.50781 1.5625C7.50781 2.08027 7.92755 2.5 8.44531 2.5Z" fill="#2DC7FF"/>
<path d="M12.1953 4.375C11.3322 4.375 10.6328 3.67563 10.6328 2.8125C10.6328 2.70687 10.6441 2.60313 10.6641 2.50313C10.6534 2.50313 10.6434 2.5 10.6328 2.5C9.59719 2.5 8.75781 3.33938 8.75781 4.375C8.75781 5.41062 9.59719 6.25 10.6328 6.25C11.6684 6.25 12.5078 5.41062 12.5078 4.375C12.5078 4.36437 12.5047 4.35437 12.5047 4.34375C12.4047 4.36375 12.3016 4.375 12.1953 4.375Z" fill="#2DC7FF"/>
<path opacity="0.35" d="M12.1953 4.375C13.0583 4.375 13.7578 3.67544 13.7578 2.8125C13.7578 1.94955 13.0583 1.25 12.1953 1.25C11.3324 1.25 10.6328 1.94955 10.6328 2.8125C10.6328 3.67544 11.3324 4.375 12.1953 4.375Z" fill="#2DC7FF"/>
<path d="M6.25781 8.75C6.68219 8.75 7.06969 8.89625 7.38406 9.13437C7.45844 8.91437 7.50781 8.6825 7.50781 8.4375C7.50781 7.22937 6.52844 6.25 5.32031 6.25C4.11219 6.25 3.13281 7.22937 3.13281 8.4375C3.13281 9.31687 3.65531 10.0706 4.40344 10.4175C4.50844 9.48125 5.29344 8.75 6.25781 8.75Z" fill="#2DC7FF"/>
<path opacity="0.35" d="M6.25781 12.5C7.29335 12.5 8.13281 11.6605 8.13281 10.625C8.13281 9.58947 7.29335 8.75 6.25781 8.75C5.22228 8.75 4.38281 9.58947 4.38281 10.625C4.38281 11.6605 5.22228 12.5 6.25781 12.5Z" fill="#2DC7FF"/>
<path d="M8.44531 11.875C8.96308 11.875 9.38281 11.4553 9.38281 10.9375C9.38281 10.4197 8.96308 10 8.44531 10C7.92755 10 7.50781 10.4197 7.50781 10.9375C7.50781 11.4553 7.92755 11.875 8.44531 11.875Z" fill="#2DC7FF"/>
<path opacity="0.35" d="M5.32031 5.625C5.83808 5.625 6.25781 5.20527 6.25781 4.6875C6.25781 4.16973 5.83808 3.75 5.32031 3.75C4.80255 3.75 4.38281 4.16973 4.38281 4.6875C4.38281 5.20527 4.80255 5.625 5.32031 5.625Z" fill="#2DC7FF"/>
<path d="M9.38281 8.125C9.72799 8.125 10.0078 7.84518 10.0078 7.5C10.0078 7.15482 9.72799 6.875 9.38281 6.875C9.03763 6.875 8.75781 7.15482 8.75781 7.5C8.75781 7.84518 9.03763 8.125 9.38281 8.125Z" fill="#2DC7FF"/>
<path opacity="0.35" d="M6.25781 14.375C6.60299 14.375 6.88281 14.0952 6.88281 13.75C6.88281 13.4048 6.60299 13.125 6.25781 13.125C5.91263 13.125 5.63281 13.4048 5.63281 13.75C5.63281 14.0952 5.91263 14.375 6.25781 14.375Z" fill="#2DC7FF"/>
</g>
<defs>
<clipPath id="clip0_286_9373">
<rect width="15" height="15" fill="white" transform="translate(0.632812)"/>
</clipPath>
</defs>
</svg>
