<svg width="15" height="16" viewBox="0 0 15 16" fill="none" xmlns="http://www.w3.org/2000/svg">
<path d="M7.80089 0C8.72675 0 9.48906 0.700232 9.58713 1.6L10.9975 1.59963C11.9499 1.59963 12.7296 2.33959 12.7929 3.27601L12.7971 3.39922C12.7971 3.7025 12.5717 3.95315 12.2793 3.99281L12.1964 3.99828C11.8931 3.99828 11.6425 3.77291 11.6028 3.48051L11.5973 3.39922C11.5973 3.09553 11.3717 2.84455 11.0789 2.80483L10.9975 2.79936L9.29197 2.80001C8.96919 3.27887 8.42182 3.59382 7.80089 3.59382H4.99617C4.37524 3.59382 3.82787 3.27887 3.50509 2.80001L1.79959 2.79936C1.4959 2.79936 1.24492 3.02503 1.2052 3.31782L1.19972 3.39922V14.2004C1.19972 14.5041 1.4254 14.7551 1.71819 14.7948L1.79959 14.8003L4.19904 14.7999C4.50268 14.7998 4.75365 15.0254 4.79341 15.3182L4.7989 15.3997C4.7989 15.731 4.53035 15.9996 4.19904 15.9996L1.79959 16C0.847114 16 0.0674686 15.26 0.00415173 14.3236L0 14.2004V3.39922C0 2.44675 0.739959 1.6671 1.67638 1.60378L1.79959 1.59963L3.20993 1.6C3.308 0.700232 4.07031 0 4.99617 0H7.80089ZM12.5971 4.7989C13.5496 4.7989 14.3292 5.53886 14.3925 6.47527L14.3967 6.59849V14.1967C14.3967 15.1492 13.6567 15.9289 12.7203 15.9922L12.5971 15.9963H7.3983C6.44583 15.9963 5.66618 15.2564 5.60287 14.32L5.59871 14.1967V6.59849C5.59871 5.64601 6.33867 4.86637 7.27509 4.80305L7.3983 4.7989H12.5971ZM7.80089 1.19972H4.99617C4.66636 1.19972 4.39899 1.46709 4.39899 1.79691C4.39899 2.12673 4.66636 2.39409 4.99617 2.39409H7.80089C8.1307 2.39409 8.39807 2.12673 8.39807 1.79691C8.39807 1.46709 8.1307 1.19972 7.80089 1.19972Z" fill="#E4E4E4"/>
</svg>
