<svg width="25" height="25" viewBox="0 0 25 25" fill="none" xmlns="http://www.w3.org/2000/svg">
<path d="M22.1044 10.5572H24.7444V14.1872H22.1044C21.8514 15.5437 21.3176 16.8324 20.5373 17.9705L22.4041 19.8373L19.8373 22.4041L17.9705 20.5373C16.8324 21.3176 15.5437 21.8514 14.1872 22.1044V24.7444H10.5572V22.1044C9.20067 21.8514 7.912 21.3176 6.7739 20.5373L4.90713 22.4041L2.34034 19.8373L4.2071 17.9705C3.42677 16.8324 2.89299 15.5437 2.64 14.1872H0V10.5572H2.64C2.89299 9.20067 3.42677 7.912 4.2071 6.7739L2.34034 4.90713L4.90713 2.34034L6.7739 4.2071C7.912 3.42677 9.20067 2.89299 10.5572 2.64V0H14.1872V2.64C15.5437 2.89299 16.8324 3.42677 17.9705 4.2071L19.8373 2.34034L22.4041 4.90713L20.5373 6.7739C21.3176 7.912 21.8514 9.20067 22.1044 10.5572ZM12.3722 5.7722C10.6218 5.7722 8.94304 6.46756 7.7053 7.7053C6.46756 8.94304 5.7722 10.6218 5.7722 12.3722C5.7722 14.1226 6.46756 15.8014 7.7053 17.0391C8.94304 18.2768 10.6218 18.9722 12.3722 18.9722C14.1226 18.9722 15.8014 18.2768 17.0391 17.0391C18.2768 15.8014 18.9722 14.1226 18.9722 12.3722C18.9722 10.6218 18.2768 8.94304 17.0391 7.7053C15.8014 6.46756 14.1226 5.7722 12.3722 5.7722Z" fill="#FFD900"/>
</svg>
