<svg width="761" height="837" viewBox="0 0 761 837" fill="none" xmlns="http://www.w3.org/2000/svg">
<g filter="url(#filter0_d_2_21379)">
<path d="M98.4358 19C104.995 56.6667 111.555 78.9167 111.555 87.9567L111.045 90.4422L101.716 135.915L92.8372 198.376L111.555 135.915L124.485 77.511C124.611 76.9432 124.674 76.3633 124.674 75.7817V41.6L98.4358 19Z" fill="url(#paint0_radial_2_21379)" shape-rendering="crispEdges"/>
<path d="M92.8372 198.376L118.115 124.615L137.284 77.8988C137.621 77.0765 137.819 76.2037 137.87 75.3162L141.073 19L124.674 41.6V75.7817C124.674 76.3633 124.611 76.9432 124.485 77.511L111.555 135.915L92.8372 198.376Z" fill="url(#paint1_radial_2_21379)" shape-rendering="crispEdges"/>
<path d="M730 810C734.418 810 738 806.418 738 802V27C738 22.5817 734.418 19 730 19H141.073L137.87 75.3162C137.819 76.2037 137.621 77.0765 137.284 77.8988L118.115 124.615L92.8372 198.376L101.716 135.915L111.045 90.4422L111.555 87.9567C111.555 78.9167 104.995 56.6667 98.4358 19H31C26.5817 19 23 22.5817 23 27V802C23 806.418 26.5817 810 31 810H730Z" fill="url(#paint2_radial_2_21379)" shape-rendering="crispEdges"/>
<path d="M140.264 18.4127L124.503 40.1329L99.0884 18.2423L98.8071 18H98.4358H31C26.0294 18 22 22.0294 22 27V802C22 806.971 26.0294 811 31 811H730C734.971 811 739 806.971 739 802V27C739 22.0294 734.971 18 730 18H141.073H140.563L140.264 18.4127Z" stroke="url(#paint3_linear_2_21379)" stroke-width="2" shape-rendering="crispEdges"/>
</g>
<defs>
<filter id="filter0_d_2_21379" x="0.4" y="0.4" width="760.2" height="836.2" filterUnits="userSpaceOnUse" color-interpolation-filters="sRGB">
<feFlood flood-opacity="0" result="BackgroundImageFix"/>
<feColorMatrix in="SourceAlpha" type="matrix" values="0 0 0 0 0 0 0 0 0 0 0 0 0 0 0 0 0 0 127 0" result="hardAlpha"/>
<feOffset dy="4"/>
<feGaussianBlur stdDeviation="10.3"/>
<feComposite in2="hardAlpha" operator="out"/>
<feColorMatrix type="matrix" values="0 0 0 0 0.0980392 0 0 0 0 0.0980392 0 0 0 0 0.0980392 0 0 0 1 0"/>
<feBlend mode="normal" in2="BackgroundImageFix" result="effect1_dropShadow_2_21379"/>
<feBlend mode="normal" in="SourceGraphic" in2="effect1_dropShadow_2_21379" result="shape"/>
</filter>
<radialGradient id="paint0_radial_2_21379" cx="0" cy="0" r="1" gradientUnits="userSpaceOnUse" gradientTransform="translate(-101.633 52.8999) rotate(18.5188) scale(249.042 2307.83)">
<stop stop-color="#6D675E"/>
<stop offset="1" stop-color="#36312B"/>
</radialGradient>
<radialGradient id="paint1_radial_2_21379" cx="0" cy="0" r="1" gradientUnits="userSpaceOnUse" gradientTransform="translate(380.5 414.5) rotate(150.874) scale(153.366 1226.15)">
<stop stop-color="#6D675E"/>
<stop offset="1" stop-color="#36312B"/>
</radialGradient>
<radialGradient id="paint2_radial_2_21379" cx="0" cy="0" r="1" gradientUnits="userSpaceOnUse" gradientTransform="translate(380.5 414.5) rotate(87.3125) scale(462.085 406.957)">
<stop stop-color="#6D675E"/>
<stop offset="1" stop-color="#36312B"/>
</radialGradient>
<linearGradient id="paint3_linear_2_21379" x1="380.5" y1="19" x2="380.5" y2="810" gradientUnits="userSpaceOnUse">
<stop stop-opacity="0"/>
<stop offset="1" stop-color="#666666"/>
</linearGradient>
</defs>
</svg>
