<svg width="22" height="22" viewBox="0 0 22 22" fill="none" xmlns="http://www.w3.org/2000/svg">
<path d="M8.89069 14.0655V7.93502L14.28 11.0006L8.89069 14.0655ZM20.8779 6.00521C20.6346 5.11077 19.9471 4.41914 19.0732 4.17439L19.0547 4.17027C16.8595 3.89114 14.3206 3.73164 11.7438 3.73164C11.4819 3.73164 11.2206 3.73302 10.9601 3.73646L10.9999 3.73577C10.7786 3.73302 10.518 3.73096 10.2561 3.73096C7.67931 3.73096 5.139 3.89046 2.64544 4.19914L2.94381 4.16889C2.05212 4.41846 1.36462 5.10939 1.12606 5.98596L1.12194 6.00383C0.846936 7.45377 0.690186 9.12233 0.690186 10.8273C0.690186 10.8878 0.690186 10.9483 0.690873 11.0081V10.9985C0.690873 11.0494 0.690186 11.1099 0.690186 11.1704C0.690186 12.8754 0.847623 14.5433 1.14806 16.161L1.12194 15.9932C1.36531 16.8876 2.05281 17.5793 2.92662 17.824L2.94519 17.8281C5.14037 18.1073 7.67931 18.2668 10.2561 18.2668C10.5173 18.2668 10.7786 18.2654 11.0398 18.262L10.9999 18.2626C11.2213 18.2654 11.4826 18.2675 11.7438 18.2675C14.3212 18.2675 16.8609 18.108 19.3544 17.7993L19.0561 17.8295C19.9484 17.5806 20.6359 16.889 20.8752 16.0125L20.8793 15.9946C21.1536 14.5446 21.3104 12.8761 21.3104 11.1718C21.3104 11.1113 21.3104 11.0508 21.3097 10.991V10.9999C21.3097 10.949 21.3104 10.8885 21.3104 10.828C21.3104 9.12302 21.1529 7.45514 20.8525 5.83746L20.8779 6.00521Z" fill="white"/>
</svg>
