<svg width="109" height="40" viewBox="0 0 109 40" fill="none" xmlns="http://www.w3.org/2000/svg">
<g filter="url(#filter0_d_476_2435)">
<path d="M11.5 0C12.5 1.66667 14.5 5.1 14.5 5.5V13.5L13 23.5L15.7313 14.3956C15.9098 13.8006 16.0184 13.1868 16.0549 12.5666L16.4281 6.22225C16.4758 5.41213 16.3999 4.59948 16.203 3.81219L15.5 1L11.5 0Z" fill="url(#paint0_radial_476_2435)"/>
<path d="M13 23.5L16.745 13.6695C16.9146 13.2241 17.0442 12.7643 17.132 12.2958L18.2885 6.12819C18.4288 5.37989 18.4615 4.6154 18.3858 3.85785L18 0L15.5 1L16.203 3.81219C16.3999 4.59948 16.4758 5.41213 16.4281 6.22225L16.0549 12.5666C16.0184 13.1868 15.9098 13.8006 15.7313 14.3956L13 23.5Z" fill="url(#paint1_radial_476_2435)"/>
<path fill-rule="evenodd" clip-rule="evenodd" d="M11.5 0H8C3.58172 0 0 3.58172 0 8V27C0 31.4183 3.58172 35 8 35H89.5L91.469 29.8805C91.82 28.9679 92.3354 28.1274 92.9895 27.4006L95.9261 24.1377C96.3076 23.7138 96.6427 23.2503 96.9257 22.7551L98.5 20V22.2018C98.5 23.0616 98.3614 23.9159 98.0895 24.7316L96.9105 28.2684C96.6386 29.0841 96.5 29.9384 96.5 30.7982V35H101C105.418 35 109 31.4183 109 27V8C109 3.58172 105.418 0 101 0H18L18.3858 3.85785C18.4615 4.6154 18.4288 5.37989 18.2885 6.12819L17.132 12.2958C17.0442 12.7643 16.9146 13.2241 16.745 13.6695L13 23.5L14.5 13.5V5.5C14.5 5.1 12.5 1.66667 11.5 0Z" fill="url(#paint2_radial_476_2435)"/>
<path d="M92.9895 27.4006C92.3354 28.1274 91.82 28.9679 91.469 29.8805L89.5 35L92 36L94.2893 29.5901C94.4295 29.1973 94.6003 28.8161 94.8 28.4499L97.0749 24.2794C97.3574 23.7614 97.5818 23.2137 97.7439 22.6464L98.5 20L96.9257 22.7551C96.6427 23.2503 96.3076 23.7138 95.9261 24.1377L92.9895 27.4006Z" fill="url(#paint3_radial_476_2435)"/>
<path d="M98.0895 24.7316C98.3614 23.9159 98.5 23.0616 98.5 22.2018V20L97.7439 22.6464C97.5818 23.2137 97.3574 23.7614 97.0749 24.2794L94.8 28.4499C94.6003 28.8161 94.4295 29.1973 94.2893 29.5901L92 36L96.5 35V30.7982C96.5 29.9384 96.6386 29.0841 96.9105 28.2684L98.0895 24.7316Z" fill="url(#paint4_radial_476_2435)"/>
</g>
<defs>
<filter id="filter0_d_476_2435" x="0" y="0" width="109" height="40" filterUnits="userSpaceOnUse" color-interpolation-filters="sRGB">
<feFlood flood-opacity="0" result="BackgroundImageFix"/>
<feColorMatrix in="SourceAlpha" type="matrix" values="0 0 0 0 0 0 0 0 0 0 0 0 0 0 0 0 0 0 127 0" result="hardAlpha"/>
<feOffset dy="4"/>
<feComposite in2="hardAlpha" operator="out"/>
<feColorMatrix type="matrix" values="0 0 0 0 0.0980392 0 0 0 0 0.0980392 0 0 0 0 0.0980392 0 0 0 1 0"/>
<feBlend mode="normal" in2="BackgroundImageFix" result="effect1_dropShadow_476_2435"/>
<feBlend mode="normal" in="SourceGraphic" in2="effect1_dropShadow_476_2435" result="shape"/>
</filter>
<radialGradient id="paint0_radial_476_2435" cx="0" cy="0" r="1" gradientUnits="userSpaceOnUse" gradientTransform="translate(-19 1.54285) rotate(5.71059) scale(36.1796 110.22)">
<stop stop-color="#6D675E"/>
<stop offset="1" stop-color="#36312B"/>
</radialGradient>
<radialGradient id="paint1_radial_476_2435" cx="0" cy="0" r="1" gradientUnits="userSpaceOnUse" gradientTransform="translate(54.5 18) rotate(170.556) scale(20.7044 63.0166)">
<stop stop-color="#6D675E"/>
<stop offset="1" stop-color="#36312B"/>
</radialGradient>
<radialGradient id="paint2_radial_476_2435" cx="0" cy="0" r="1" gradientUnits="userSpaceOnUse" gradientTransform="translate(54.5 17.5) rotate(80.8134) scale(20.6891 61.3114)">
<stop stop-color="#6D675E"/>
<stop offset="1" stop-color="#36312B"/>
</radialGradient>
<radialGradient id="paint3_radial_476_2435" cx="0" cy="0" r="1" gradientUnits="userSpaceOnUse" gradientTransform="translate(84.5 24.1579) rotate(28.7438) scale(10.8351 31.2228)">
<stop stop-color="#6D675E"/>
<stop offset="1" stop-color="#36312B"/>
</radialGradient>
<radialGradient id="paint4_radial_476_2435" cx="0" cy="0" r="1" gradientUnits="userSpaceOnUse" gradientTransform="translate(107.5 33.6316) rotate(-176.129) scale(14.032 39.4152)">
<stop stop-color="#6D675E"/>
<stop offset="1" stop-color="#36312B"/>
</radialGradient>
</defs>
</svg>
