<svg width="102" height="38" viewBox="0 0 102 38" fill="none" xmlns="http://www.w3.org/2000/svg">
<g filter="url(#filter0_di_285_2990)">
<path d="M5.89311 3.89715H12.5088V12.6236L5.91199 16.6904H12.6674L16.4019 14.2624V1.95249C16.4019 0.876315 15.5296 0.0078125 14.4572 0.0078125H2V16.6942H5.89311V3.90093V3.89715Z" fill="white"/>
<path d="M36.011 14.7417V0L32.1179 0.906263V12.7933H23.2215V0L19.3284 1.1215V14.7417C19.3284 15.8179 20.2006 16.6864 21.273 16.6864H34.0663C35.1425 16.6864 36.011 15.8141 36.011 14.7417Z" fill="white"/>
<path d="M39.7265 7.2995L49.0043 11.574V12.7937H42.8002V10.2033L38.9071 11.8761V14.7421C38.9071 15.8183 39.7794 16.6868 40.8518 16.6868H50.9527C52.0289 16.6868 52.8974 15.8145 52.8974 14.7421V11.1209C52.8974 10.3959 52.4934 9.7275 51.8477 9.39521L42.5699 5.12071V3.90105H48.774V6.11004L52.667 4.50521V1.95637C52.667 0.880198 51.7948 0.0117188 50.7224 0.0117188H40.6214C39.5453 0.0117188 38.6768 0.883974 38.6768 1.95637V5.57762C38.6768 6.30263 39.0808 6.97099 39.7265 7.30328V7.2995Z" fill="white"/>
<path d="M11.3721 24.6315C10.3828 24.6353 9.51808 25.1186 9.24998 25.8134L6.06299 33.5053L13.0713 27.4296L16.7001 27.3956L16.6699 24.5938L11.3721 24.6391V24.6315Z" fill="white"/>
<path d="M2.10583 21.247V33.5003H6.39921V22.8669H16.6965V19.6309H4.25063C3.06495 19.6309 2.10205 20.3559 2.10205 21.247H2.10583Z" fill="white"/>
<path d="M33.8323 30.1662H23.6898V19.6348H19.2529V31.8352C19.2529 32.7566 20.246 33.5042 21.4695 33.5042H36.0488C37.2723 33.5042 38.2654 32.7566 38.2654 31.8352V19.6348H33.8285V30.1662H33.8323Z" fill="white"/>
<path d="M65.3546 33.4412C65.3546 33.4412 51.5834 19.2017 50.477 19.198H44.8393H42.0941C40.8707 19.198 39.8738 20.04 39.8738 21.0784V33.5017H48.3359V22.6342L65.3999 33.5055H69.8595V4.83008H65.3999L65.3508 33.445L65.3546 33.4412Z" fill="white"/>
<path d="M54.3625 3.34908L60.6233 3.1414V16.6861L64.5202 15.2474V3.1414L71.0187 2.9375L71.0905 3.91171H54.3625V3.34908Z" fill="white"/>
<path d="M88.5509 3.78765C88.094 1.58621 86.1531 0.0078125 83.9064 0.0078125H54V3.91224H54.3663V0.0833383H71.0942V3.91224H82.8038C83.8913 3.91224 84.8315 4.67502 85.0543 5.74364L85.1563 20.9196H88.5811L88.5547 3.78765H88.5509Z" fill="white"/>
<path d="M71.0905 0.0839844H54.3625V3.91289H71.0905V0.0839844Z" fill="white"/>
<path d="M91.8549 23.0492C91.8549 22.4904 91.4017 22.041 90.8467 22.041H89.3703H85.4658H84.0724C83.5174 22.041 83.0642 22.4942 83.0642 23.0492V27.6938H91.8549V23.0492Z" fill="white"/>
<path d="M97.0546 27.6893H81.686C80.8024 27.6893 80.085 28.4068 80.085 29.2904V33.6744H99.9999V30.6309C99.9999 29.0034 98.6821 27.6855 97.0546 27.6855V27.6893Z" fill="white"/>
</g>
<defs>
<filter id="filter0_di_285_2990" x="0" y="0" width="102" height="37.6738" filterUnits="userSpaceOnUse" color-interpolation-filters="sRGB">
<feFlood flood-opacity="0" result="BackgroundImageFix"/>
<feColorMatrix in="SourceAlpha" type="matrix" values="0 0 0 0 0 0 0 0 0 0 0 0 0 0 0 0 0 0 127 0" result="hardAlpha"/>
<feOffset dy="2"/>
<feGaussianBlur stdDeviation="1"/>
<feComposite in2="hardAlpha" operator="out"/>
<feColorMatrix type="matrix" values="0 0 0 0 0 0 0 0 0 0.55 0 0 0 0 1 0 0 0 1 0"/>
<feBlend mode="normal" in2="BackgroundImageFix" result="effect1_dropShadow_285_2990"/>
<feBlend mode="normal" in="SourceGraphic" in2="effect1_dropShadow_285_2990" result="shape"/>
<feColorMatrix in="SourceAlpha" type="matrix" values="0 0 0 0 0 0 0 0 0 0 0 0 0 0 0 0 0 0 127 0" result="hardAlpha"/>
<feOffset/>
<feGaussianBlur stdDeviation="1"/>
<feComposite in2="hardAlpha" operator="arithmetic" k2="-1" k3="1"/>
<feColorMatrix type="matrix" values="0 0 0 0 0 0 0 0 0 0.583333 0 0 0 0 1 0 0 0 1 0"/>
<feBlend mode="normal" in2="shape" result="effect2_innerShadow_285_2990"/>
</filter>
</defs>
</svg>
