<?xml version="1.0" encoding="UTF-8"?>
<!DOCTYPE svg PUBLIC "-//W3C//DTD SVG 1.1//EN" "http://www.w3.org/Graphics/SVG/1.1/DTD/svg11.dtd">
<svg xmlns="http://www.w3.org/2000/svg" version="1.1" width="309px" height="309px" style="shape-rendering:geometricPrecision; text-rendering:geometricPrecision; image-rendering:optimizeQuality; fill-rule:evenodd; clip-rule:evenodd" xmlns:xlink="http://www.w3.org/1999/xlink">
<g><path style="opacity:0.971" fill="#0decff" d="M 157.5,238.5 C 157.5,237.833 157.833,237.5 158.5,237.5C 159.794,238.29 160.961,239.29 162,240.5C 162.333,237.5 162.667,234.5 163,231.5C 163.5,231 164,230.5 164.5,230C 168.152,229.501 171.818,229.335 175.5,229.5C 175.334,221.826 175.5,214.159 176,206.5C 178.826,204.66 181.993,203.994 185.5,204.5C 178.645,170.038 171.145,135.704 163,101.5C 161.786,99.9512 160.286,98.7845 158.5,98C 143.833,97.3333 129.167,97.3333 114.5,98C 113.468,99.6268 112.134,100.793 110.5,101.5C 110.5,100.5 110.5,99.5 110.5,98.5C 108.712,97.3775 106.712,97.2109 104.5,98C 103.833,99.3333 102.833,100.333 101.5,101C 85.1667,101.667 68.8333,101.667 52.5,101C 52,100.5 51.5,100 51,99.5C 50.3333,92.1667 50.3333,84.8333 51,77.5C 51.9025,76.2986 53.0692,75.4652 54.5,75C 69.8333,74.3333 85.1667,74.3333 100.5,75C 102.5,75.6667 103.833,77 104.5,79C 125.167,79.3333 145.833,79.6667 166.5,80C 175.177,82.679 180.343,88.5123 182,97.5C 189.822,133.113 197.322,168.78 204.5,204.5C 208.106,204.211 211.606,204.544 215,205.5C 215.5,213.493 215.666,221.493 215.5,229.5C 226.603,229.046 237.603,229.546 248.5,231C 250.32,231.979 251.487,233.479 252,235.5C 252.5,242.492 252.666,249.492 252.5,256.5C 222.5,256.5 192.5,256.5 162.5,256.5C 162.826,252.116 162.492,247.783 161.5,243.5C 159.549,242.226 158.215,240.56 157.5,238.5 Z"/></g>
<g><path style="opacity:0.985" fill="#0dedff" d="M 110.5,98.5 C 110.5,99.5 110.5,100.5 110.5,101.5C 109.825,105.357 108.658,109.023 107,112.5C 106.333,115.167 106.333,117.833 107,120.5C 114.093,113.711 122.427,111.711 132,114.5C 134.648,115.982 136.815,117.982 138.5,120.5C 146.769,144.807 154.936,169.141 163,193.5C 164.979,207.032 159.146,214.532 145.5,216C 149.233,223.558 153.566,230.725 158.5,237.5C 157.833,237.5 157.5,237.833 157.5,238.5C 151.56,233.322 147.06,226.989 144,219.5C 143.51,218.207 143.343,216.873 143.5,215.5C 135.772,215.811 128.105,215.311 120.5,214C 114.882,211.448 111.048,207.282 109,201.5C 104.625,180.25 100.792,158.916 97.5,137.5C 97.2968,131.959 99.1302,127.292 103,123.5C 103.199,114.347 105.699,106.014 110.5,98.5 Z"/></g>
</svg>
